<?xml version="1.0" encoding="UTF-8" standalone="no"?>
<svg
   id="Ebene_1"
   data-name="Ebene 1"
   width="437.9"
   height="158"
   version="1.1"
   sodipodi:docname="mcube-logo-white.svg"
   inkscape:version="1.2.2 (732a01da63, 2022-12-09)"
   xml:space="preserve"
   xmlns:inkscape="http://www.inkscape.org/namespaces/inkscape"
   xmlns:sodipodi="http://sodipodi.sourceforge.net/DTD/sodipodi-0.dtd"
   xmlns="http://www.w3.org/2000/svg"
   xmlns:svg="http://www.w3.org/2000/svg"><sodipodi:namedview
     id="namedview13"
     pagecolor="#ffffff"
     bordercolor="#000000"
     borderopacity="0.25"
     inkscape:showpageshadow="2"
     inkscape:pageopacity="0.0"
     inkscape:pagecheckerboard="0"
     inkscape:deskcolor="#d1d1d1"
     showgrid="false"
     inkscape:zoom="2.7540535"
     inkscape:cx="170.11289"
     inkscape:cy="166.30033"
     inkscape:window-width="2560"
     inkscape:window-height="1377"
     inkscape:window-x="4472"
     inkscape:window-y="-8"
     inkscape:window-maximized="1"
     inkscape:current-layer="Ebene_1" /><defs
     id="defs4"><style
       id="style2">.cls-1{fill:#fff}</style></defs><path
     class="cls-1"
     d="M164.9 73.4a.7.7 0 01-.1-.5V43.2a.7.7 0 01.1-.5l.5-.2h3a.9.9 0 01.8.5l7.5 11.9c0 .2.1.2.2 0l7.5-11.9a1 1 0 01.8-.5h3l.5.2a.8.8 0 01.2.5v29.7a.8.8 0 01-.2.5l-.5.2h-2.9l-.5-.2a.8.8 0 01-.2-.5V50.4l-.1-.2h-.2l-6 9.9a.8.8 0 01-.8.4h-1.4a.8.8 0 01-.8-.4l-6-9.9h-.2a.3.3 0 00-.1.2v22.5c0 .2 0 .4-.2.5l-.4.2h-3zM205.7 72.7a8.8 8.8 0 01-3.8-3.6 10.2 10.2 0 01-1.3-5.3V52.3a10.2 10.2 0 011.3-5.3 9.2 9.2 0 013.8-3.5 12 12 0 015.7-1.3 12.5 12.5 0 015.6 1.2 8.6 8.6 0 013.8 3.5 9.3 9.3 0 011.4 5.1c0 .3-.2.5-.7.5l-2.9.2h-.2l-.3-.1a.2.2 0 01-.2-.2v-.2a6.2 6.2 0 00-1.8-4.6 6.4 6.4 0 00-4.7-1.7 6.9 6.9 0 00-4.8 1.7 6.2 6.2 0 00-1.8 4.6V64a5.8 5.8 0 001.8 4.5 6.5 6.5 0 004.8 1.8 6.1 6.1 0 004.7-1.8 5.8 5.8 0 001.8-4.5.5.5 0 01.2-.4h.5l2.9.2c.5 0 .7.1.7.2v.2a9.9 9.9 0 01-1.4 5.2 9.2 9.2 0 01-3.8 3.5 12.5 12.5 0 01-5.6 1.2 12 12 0 01-5.7-1.4zM241.7 51.2l.5-.2h2.9l.5.2a.8.8 0 01.2.5v21.2a.8.8 0 01-.2.5l-.5.2h-2.9l-.5-.2a.7.7 0 01-.1-.5v-1.3h-.3a6.3 6.3 0 01-5.4 2.4 10.2 10.2 0 01-4-.8 7.3 7.3 0 01-3-2.5 7.2 7.2 0 01-1.1-4v-15a.8.8 0 01.2-.5l.5-.2h2.9l.4.2c.2.1.2.3.2.5v13.6a5.2 5.2 0 001.2 3.6 5.4 5.4 0 007 0 4.9 4.9 0 001.4-3.6V51.7a.7.7 0 01.1-.5zM271.5 62.2a17.7 17.7 0 01-.8 5.7 9.3 9.3 0 01-3.1 4.5 9 9 0 01-5.3 1.6 7.2 7.2 0 01-2.9-.6 9.1 9.1 0 01-2.3-1.7.1.1 0 00-.1-.1l-.1.2v1.1a.8.8 0 01-.2.5l-.5.2h-2.9l-.5-.2a.8.8 0 01-.2-.5V43.2a.8.8 0 01.2-.5l.5-.2h2.9l.5.2a.8.8 0 01.2.5v9.6l.1.2a.1.1 0 00.1-.1 9.1 9.1 0 012.3-1.7 9.3 9.3 0 012.9-.5 8.3 8.3 0 018.5 6.2 19.4 19.4 0 01.7 5.3zm-4.3.1a11.1 11.1 0 00-1.4-5.8 4.4 4.4 0 00-4-2.1 4 4 0 00-3.7 2.2 11.5 11.5 0 00-1.2 5.7 12.1 12.1 0 001.1 5.6 4.2 4.2 0 003.8 2.4 4.5 4.5 0 004.3-2.5 12.2 12.2 0 001.1-5.5zM291.9 67.5c.2-.2.3-.4.5-.4a.5.5 0 01.4.2l1.8 1.1a.5.5 0 01.4.5v.4a8 8 0 01-3.4 3.4 10.7 10.7 0 01-5.1 1.3 9.7 9.7 0 01-5.3-1.4 8.4 8.4 0 01-3.3-4.1 15.4 15.4 0 01-1.1-6.3 20.3 20.3 0 01.4-4.9 8.8 8.8 0 013.2-4.9 10.3 10.3 0 015.9-1.7c2.8 0 4.9.7 6.4 2.2s2.4 3.6 2.9 6.3l.3 4c.1 1.5-.2.7-.7.7h-14c-.2 0-.2.1-.2.2a7 7 0 00.3 2.4 5.1 5.1 0 001.9 2.8 6.2 6.2 0 003.7 1 5.3 5.3 0 005-2.8zM283 55.3a4.8 4.8 0 00-1.7 2.6 11.9 11.9 0 00-.4 2.4c0 .2.1.3.2.3h10.1c.2 0 .2-.1.2-.3a9.8 9.8 0 00-.2-2.1 4.9 4.9 0 00-5-3.8 5.3 5.3 0 00-3.2.9z"
     id="path6"
     style="fill:#2077ca;fill-opacity:1" /><text
     transform="translate(298.1 73.6)"
     font-size="44.4"
     font-family="Barlow-Medium,Barlow"
     font-weight="500"
     fill="#fff"
     id="text8"
     style="fill:#2077ca;fill-opacity:1" /><path
     class="cls-1"
     d="M136.4 117.3a2.7 2.7 0 112.7-2.7 2.7 2.7 0 01-2.7 2.7m-4.5-7.7L81.3 80.4a6.6 6.6 0 00.1-1.4 7.7 7.7 0 00-.2-1.5L132 48.2a6 6 0 002.6 1.4v58.5a6.1 6.1 0 00-2.6 1.5m-52.9 35.9a6.1 6.1 0 00-2.4-1.5V85.4a5.8 5.8 0 002.5-1.5l50.6 29.2a7.6 7.6 0 00-.1 1.5 3.9 3.9 0 00.2 1.5zm-4.6 7.6a2.7 2.7 0 112.7-2.7 2.7 2.7 0 01-2.7 2.7m-55.3-37a6.8 6.8 0 00.2-1.4 7.8 7.8 0 00-.2-1.4L70.1 84a7.7 7.7 0 002.5 1.4v58.5a6.8 6.8 0 00-2.6 1.5zm-2-6.3a5.8 5.8 0 00-2.4-1.4V49.6a6.2 6.2 0 002.5-1.4L68 77.5a7.7 7.7 0 00-.2 1.5 5.9 5.9 0 00.2 1.4zm-4.6 7.6a2.7 2.7 0 01-2.7-2.7 2.8 2.8 0 012.7-2.7 2.8 2.8 0 012.7 2.7 2.8 2.8 0 01-2.7 2.7M10 43.2a2.7 2.7 0 112.7 2.7 2.7 2.7 0 01-2.7-2.7m9.3-1.4l50.8-29.3a5.1 5.1 0 002.6 1.4v58.6a6.4 6.4 0 00-2.6 1.5L19.3 44.7a7.7 7.7 0 00.2-1.5 6.8 6.8 0 00-.2-1.4m55.3-37a2.7 2.7 0 11-2.7 2.7 2.7 2.7 0 012.7-2.7M77.3 79a2.7 2.7 0 11-2.7-2.7 2.7 2.7 0 012.7 2.7m52.6-37.3a7.6 7.6 0 00-.1 1.5 7.6 7.6 0 00.1 1.5L79.2 74a7.7 7.7 0 00-2.5-1.4V13.9a6.1 6.1 0 002.4-1.5zm6.6-1.2a2.7 2.7 0 11-2.6 2.7 2.7 2.7 0 012.6-2.7m2.1 67.7V49.6a6.8 6.8 0 00-2.2-13.2 7.1 7.1 0 00-4.5 1.7L81.3 8.9a6.6 6.6 0 00.1-1.4 6.8 6.8 0 00-13.6 0A7.7 7.7 0 0068 9L17.3 38.3a6.4 6.4 0 00-4.6-1.9 6.8 6.8 0 00-2 13.3v58.6a6.7 6.7 0 001.9 13.2 6.4 6.4 0 004.6-1.9l50.7 29.3a7.7 7.7 0 00-.2 1.5 6.8 6.8 0 1013.4-1.4l50.9-29.4a6.5 6.5 0 004.4 1.8 6.8 6.8 0 006.8-6.8 6.7 6.7 0 00-4.6-6.4M164.9 96.8l-.1-.2V84.1h1.4l.4.2 3.1 4.9c0 .1 0 .1.1 0l3.1-4.9c0-.1.1-.2.3-.2h1.4l.1.2v12.3l-.1.2H173l-.1-.2v-9.3h-.1l-2.5 4.1-.3.2h-.6l-.3-.2-2.5-4.1h-.1v9.3l-.1.2h-1.6zM183.2 87.6h1.6v9l-.1.2h-1.6l-.1-.2V96a2.7 2.7 0 01-2.2 1 3.3 3.3 0 01-1.7-.4 2.3 2.3 0 01-1.2-1 2.8 2.8 0 01-.5-1.6v-6.4h1.6l.1.2v5.6a2.5 2.5 0 00.5 1.5 1.7 1.7 0 001.4.6 2 2 0 001.5-.6 2.5 2.5 0 00.5-1.5v-5.8zm-4.4-1.8a1.1 1.1 0 01-.3-.8.9.9 0 01.3-.7 1.1 1.1 0 01.8-.3 1 1 0 011 1 1.1 1.1 0 01-.3.8.9.9 0 01-.7.3 1.1 1.1 0 01-.8-.3zm3.3 0a1.1 1.1 0 01-.3-.8.9.9 0 01.3-.7.8.8 0 01.7-.3 1 1 0 011 1 1.1 1.1 0 01-.3.8.9.9 0 01-.7.3.8.8 0 01-.7-.3zM194 88.3a2.9 2.9 0 01.9 2.3v6l-.1.2h-1.6V91a2 2 0 00-.6-1.5 1.7 1.7 0 00-1.4-.6 1.9 1.9 0 00-1.3.5 1.9 1.9 0 00-.7 1.2v6.2h-1.6l-.1-.2v-8.8l.1-.2h1.6v.7h.1a2.8 2.8 0 012.3-1 3.1 3.1 0 012.4 1zM198.8 96.3a3.8 3.8 0 01-1.4-1.9 6.9 6.9 0 01-.3-2.2 8 8 0 01.3-2.3 3.6 3.6 0 011.4-1.8 3.8 3.8 0 012.4-.7 4 4 0 012.4.7 3.1 3.1 0 011.3 1.7 1.1 1.1 0 01.1.5l-.2.2-1.2.2h-.1a.2.2 0 01-.2-.2v-.2a1.6 1.6 0 00-.7-1.1 2.1 2.1 0 00-1.4-.4 2 2 0 00-1.3.4 1.9 1.9 0 00-.7 1.1 9 9 0 00-.2 1.8 7.2 7.2 0 00.2 1.7 2.4 2.4 0 00.7 1.2 2.8 2.8 0 001.3.4 2.9 2.9 0 001.4-.4 1.9 1.9 0 00.7-1.1l.2-.2h.2l1.1.2a.3.3 0 01.3.3.4.4 0 00-.1.3 3 3 0 01-1.3 1.8 4 4 0 01-2.4.7 3.6 3.6 0 01-2.5-.7zM213.6 88.3a2.9 2.9 0 01.9 2.3v6l-.1.2h-1.6V91a2 2 0 00-.6-1.5 1.7 1.7 0 00-1.4-.6 1.9 1.9 0 00-1.3.5 1.4 1.4 0 00-.6 1.2v6l-.1.2h-1.6l-.1-.2V84.3l.1-.2h1.6v4.2a2.8 2.8 0 012.4-1 2.9 2.9 0 012.4 1zM223.6 88.3a2.9 2.9 0 01.9 2.3v6l-.1.2h-1.6l-.1-.2V91a2 2 0 00-.5-1.5 1.7 1.7 0 00-1.4-.6 1.9 1.9 0 00-1.3.5 1.9 1.9 0 00-.7 1.2v6.2h-1.6l-.1-.2v-8.8l.1-.2h1.6v.7h.1a2.6 2.6 0 012.3-1 3.2 3.2 0 012.4 1zM233.1 94.3h.3l.8.5.1.2v.2a3.8 3.8 0 01-1.4 1.4 4.6 4.6 0 01-2.1.5 3.8 3.8 0 01-2.2-.6 3.6 3.6 0 01-1.4-1.6 7.7 7.7 0 01-.4-2.7 5.9 5.9 0 01.2-2 3.4 3.4 0 011.3-2 3.6 3.6 0 012.4-.7 3.6 3.6 0 012.6.9 4.9 4.9 0 011.2 2.6l.2 1.7c.1.7-.1.2-.3.2h-5.8a.1.1 0 00-.1.1l.1 1a2.5 2.5 0 00.8 1.2 2.7 2.7 0 003.7-.8zm-3.7-5a1.4 1.4 0 00-.7 1 3.6 3.6 0 00-.2 1.1h4.4a6.4 6.4 0 00-.2-.9 1.9 1.9 0 00-2-1.6 1.7 1.7 0 00-1.3.4zM241.9 87.6c.2.1.2.2.2.4l-.3 1.2-.1.2-.2-.1h-.9a1.8 1.8 0 00-1.4.6 1.7 1.7 0 00-.6 1.4v5.5h-1.7v-9.2h1.7v1l.1.1a2.6 2.6 0 012.3-1.3zM249.3 96.5a4.3 4.3 0 01-1.5-1.5 4 4 0 01-.6-2.2v-4.7a3.8 3.8 0 01.6-2.2 3.1 3.1 0 011.5-1.5 6 6 0 012.4-.5 4.3 4.3 0 012.3.5 3.6 3.6 0 011.6 1.4 4.6 4.6 0 01.5 2.1l-.2.2h-1.5a2.6 2.6 0 00-.8-1.9 2.5 2.5 0 00-1.9-.7 2.7 2.7 0 00-2 .7 2.5 2.5 0 00-.7 1.8v4.9a2.5 2.5 0 00.7 1.9 3.2 3.2 0 002 .7 2.9 2.9 0 001.9-.7 2.6 2.6 0 00.8-1.9v-.2h1.7a5.4 5.4 0 01-.5 2.2 3.6 3.6 0 01-1.6 1.4 5.6 5.6 0 01-2.3.5 6 6 0 01-2.4-.3zM258.4 96.8V84.1h1.6l.1.2v12.3l-.1.2h-1.6zM268.4 87.6h1.6l.1.2v8.8l-.1.2h-1.6l-.1-.2V96h-.1a2.7 2.7 0 01-2.2 1 3.5 3.5 0 01-1.7-.4 2.3 2.3 0 01-1.2-1 2.7 2.7 0 01-.4-1.6v-6.4h1.6l.1.2v5.6a2.5 2.5 0 00.5 1.5 1.7 1.7 0 001.4.6 2 2 0 001.5-.6 2 2 0 00.5-1.5v-5.8zM274.1 96.6a2.5 2.5 0 01-1.3-.9 2.1 2.1 0 01-.5-1.3v-.2h1.5a.1.1 0 01.1.1 1 1 0 00.6.9 2 2 0 001.4.4 2.5 2.5 0 001.3-.3 1.1 1.1 0 00.5-.9c0-.4-.1-.7-.4-.8l-1.6-.6-1.7-.6a2.7 2.7 0 01-1.2-.9 2 2 0 01-.5-1.4 2.1 2.1 0 011-1.9 3.9 3.9 0 012.5-.8 3.8 3.8 0 011.9.4 2.3 2.3 0 011.2.9 2.4 2.4 0 01.5 1.4.1.1 0 01-.1.1h-1.6a.9.9 0 00-.5-.9 2 2 0 00-1.4-.4 2.5 2.5 0 00-1.3.3 1.1 1.1 0 00-.5.9.8.8 0 00.5.8l1.5.6 1.8.5a2.7 2.7 0 011.2.9 2.2 2.2 0 01.5 1.4 2.2 2.2 0 01-1 2 4 4 0 01-2.6.8 3.8 3.8 0 01-1.8-.5zM286.3 88.9h-2.2v4.7a1.9 1.9 0 00.4 1.2 1.6 1.6 0 001.1.3h.4l.2.1.1.2v.9a.3.3 0 01-.3.3h-.7a3 3 0 01-2.1-.5c-.5-.3-.7-.9-.7-1.8v-5.2h-1.3v-1.3l.1-.2h1.3v-2.4h1.6v2.2h2.2l.1.2v1.1zM294.3 94.3h.4l.7.5a.2.2 0 01.2.2v.2a3.8 3.8 0 01-1.4 1.4 4.6 4.6 0 01-2.1.5 4 4 0 01-2.2-.6 3.4 3.4 0 01-1.3-1.6 7.6 7.6 0 01-.5-2.7 10.3 10.3 0 01.2-2 3.9 3.9 0 011.3-2 4 4 0 012.4-.7 3.7 3.7 0 012.7.9 4.9 4.9 0 011.2 2.6l.1 1.7c0 .7-.1.2-.3.2h-5.9a5.6 5.6 0 00.2 1 2 2 0 00.8 1.2 2.4 2.4 0 001.5.4 2.1 2.1 0 002-1.2zm-3.7-5a2.6 2.6 0 00-.7 1 3.7 3.7 0 00-.1 1.1h4.3l-.1-.9a2.4 2.4 0 00-.7-1.2 2.1 2.1 0 00-1.4-.4 2 2 0 00-1.3.4zM303.2 87.6c.1.1.2.2.1.4l-.2 1.2-.2.2-.1-.1h-.9a2 2 0 00-1.5.6 2 2 0 00-.5 1.4v5.3l-.1.2h-1.6l-.1-.2v-8.8l.1-.2h1.6l.1.2v.8h.1a2.4 2.4 0 012.2-1.3zM311.4 85.9a2.1 2.1 0 00-.3 1.3v.2h2.1l.1.2v1.3h-2a.1.1 0 00-.1.1v7.4l-.1.2h-1.6v-7.4H308v-1.6h1.5v-.3a4.4 4.4 0 01.2-1.8 1.7 1.7 0 011-1 5 5 0 011.9-.3h.7l.1.2v1l-.1.2h-.5a2.3 2.3 0 00-1.4.3zM321 87.6h1.5l.1.2v8.8l-.1.2H321l-.1-.2V96h-.1a3.2 3.2 0 01-3.9.6 2.3 2.3 0 01-1.2-1 2.8 2.8 0 01-.5-1.6v-6.2l.1-.2h1.6v5.8a2.5 2.5 0 00.5 1.5 2 2 0 001.5.6 1.7 1.7 0 001.4-.6 2 2 0 00.6-1.5v-5.6l.1-.2zm-4.4-1.8a1.1 1.1 0 01-.3-.8 1 1 0 011-1 .8.8 0 01.7.3.9.9 0 01.3.7 1.1 1.1 0 01-.3.8.8.8 0 01-.7.3.9.9 0 01-.7-.3zm3.2 0a1.1 1.1 0 01-.3-.8 1 1 0 011-1 1 1 0 01.8.3.9.9 0 01.3.7 1.1 1.1 0 01-.3.8 1 1 0 01-.8.3.9.9 0 01-.7-.3zM330.3 87.6c.2.1.2.2.2.4l-.3 1.2a.2.2 0 01-.2.2.1.1 0 01-.1-.1h-.9a2.1 2.1 0 00-2 2v5.3l-.1.2h-1.6l-.1-.2v-9h1.6l.1.2v.8h.1a2.4 2.4 0 012.2-1.3zM341.5 84.1h1.6v12.7h-1.6l-.1-.2v-.5h-.1a2.3 2.3 0 01-1 .7 2.1 2.1 0 01-1.2.3 3 3 0 01-2.1-.7 3.5 3.5 0 01-1.3-1.8 7.5 7.5 0 01-.3-2.3 7.9 7.9 0 01.2-2.3 3.5 3.5 0 011.3-1.8 3.2 3.2 0 012.2-.7l1.2.2 1 .7h.1v-4l.1-.3zm-.1 8.1a5.4 5.4 0 00-.5-2.4 1.9 1.9 0 00-3.2 0 4.3 4.3 0 00-.6 2.4 5.2 5.2 0 00.5 2.3 1.8 1.8 0 001.7 1 1.8 1.8 0 001.6-1 4.9 4.9 0 00.5-2.3zM345.9 85.8a.9.9 0 01-.4-.8 1.1 1.1 0 01.4-.9 1.1 1.1 0 01.8-.3 1.2 1.2 0 01.9.3 1.4 1.4 0 01.3.9 1.1 1.1 0 01-.3.8 1.2 1.2 0 01-.9.3 1.1 1.1 0 01-.8-.3zm0 11v-9.2h1.6l.1.2v8.8l-.1.2h-1.6zM356.3 94.3h.3l.8.5.1.2v.2a3.8 3.8 0 01-1.4 1.4 4.6 4.6 0 01-2.1.5 3.8 3.8 0 01-2.2-.6 3.6 3.6 0 01-1.4-1.6 7.7 7.7 0 01-.4-2.7 5.9 5.9 0 01.2-2 3.4 3.4 0 011.3-2 4 4 0 012.4-.7 3.8 3.8 0 012.7.9 4.2 4.2 0 011.1 2.6l.2 1.7c.1.7-.1.2-.3.2h-5.8a.1.1 0 00-.1.1l.1 1a2.2 2.2 0 00.9 1.2 2.4 2.4 0 001.5.4 2.2 2.2 0 002.1-1.3zm-3.7-5a1.8 1.8 0 00-.7 1l-.2 1.1h4.4l-.1-.9a2.5 2.5 0 00-.8-1.2 2.3 2.3 0 00-2.6 0zM363.3 96.8l-.1-.2v-1.2l.1-.3 6.4-9.4h-6.4l-.1-.2v-1l.1-.2h8.4v1.3a.6.6 0 01-.1.4l-6.4 9.4h6.5v1.4h-8.4zM379.4 87.6h1.6l.1.2v8.8l-.1.2h-1.6l-.1-.2V96h-.1a2.7 2.7 0 01-2.2 1 3.5 3.5 0 01-1.7-.4 2.3 2.3 0 01-1.2-1 2.7 2.7 0 01-.4-1.6v-6.4h1.6l.1.2v5.6a2.5 2.5 0 00.5 1.5 1.7 1.7 0 001.4.6 2 2 0 001.5-.6 2 2 0 00.5-1.5v-5.8zM383.8 96.8l-.1-.2V84.3l.1-.2h1.6v7.1h.1l3.3-3.6.3-.2h1.5a.2.2 0 01.2.2.3.3 0 00-.1.2l-2.3 2.6 2.8 5.9v.2l-.2.2h-1.3a.3.3 0 01-.3-.3l-2.2-4.9h-.1l-1.7 1.9v2.9l-.1.2h-1.6zM398.7 87.6h1.6v9.2h-1.6l-.1-.2V96h-.1a3.2 3.2 0 01-3.9.6 2.3 2.3 0 01-1.2-1 2.8 2.8 0 01-.5-1.6v-6.2l.1-.2h1.6v5.8a2 2 0 00.6 1.5 1.9 1.9 0 002.8 0 2 2 0 00.6-1.5v-5.6l.1-.2zM409.5 88.3a2.9 2.9 0 01.9 2.3v6l-.1.2h-1.6l-.1-.2V91a2.5 2.5 0 00-.5-1.5 1.8 1.8 0 00-1.4-.6 2.2 2.2 0 00-1.4.5 2.3 2.3 0 00-.6 1.2v6l-.1.2H403l-.1-.2v-9h1.6l.1.2v.5h.1a2.6 2.6 0 012.3-1 3.2 3.2 0 012.5 1zM415.7 85.9a2.1 2.1 0 00-.3 1.3v.2h2.1v1.5h-2a.1.1 0 00-.1.1v7.4l-.1.2h-1.6l-.1-.2v-7.2a.1.1 0 00-.1-.1h-1.3v-1.5h1.4v-.3a4.2 4.2 0 01.3-1.8 1.7 1.7 0 011-1 4.7 4.7 0 011.9-.3h.7l.1.2v1l-.1.2h-.5a2.1 2.1 0 00-1.3.3zM424.4 88.9h-2.1v4.7a1.9 1.9 0 00.3 1.2 1.6 1.6 0 001.1.3h.4l.2.1.1.2v.9a.3.3 0 01-.3.3h-.7a3 3 0 01-2.1-.5c-.5-.3-.7-.9-.7-1.8v-5.2h-1.3v-1.3l.1-.2h1.3v-2.4h1.6a.3.3 0 01.1.2v2h2.1l.1.2v1.1zM170.4 103.8h1.6v12.7h-1.6l-.1-.2v-.5h-.1a2.3 2.3 0 01-1 .7 2.1 2.1 0 01-1.2.3 3 3 0 01-2.1-.7 3.5 3.5 0 01-1.3-1.8 7.5 7.5 0 01-.3-2.3 7.9 7.9 0 01.2-2.3 3.5 3.5 0 011.3-1.8 3.2 3.2 0 012.2-.7l1.2.2 1 .7h.1v-4l.1-.3zm-.1 8.1a5.4 5.4 0 00-.5-2.4 1.9 1.9 0 00-3.2 0 4.3 4.3 0 00-.6 2.4 5.2 5.2 0 00.5 2.3 1.8 1.8 0 001.7 1 1.8 1.8 0 001.6-1 4.9 4.9 0 00.5-2.3zM180.7 114h.3l.8.5.1.2v.2a3.8 3.8 0 01-1.4 1.4 4.6 4.6 0 01-2.1.5 3.8 3.8 0 01-2.2-.6 3.6 3.6 0 01-1.4-1.6 7.7 7.7 0 01-.4-2.7 5.6 5.6 0 01.2-2 3.4 3.4 0 011.3-2 3.6 3.6 0 012.4-.7 3.6 3.6 0 012.6.9 4.9 4.9 0 011.2 2.6 8.6 8.6 0 01.1 1.7c0 .1 0 .2-.2.2h-5.9l.1 1a2.5 2.5 0 00.8 1.2 2.7 2.7 0 003.7-.8zm-3.7-5a1.4 1.4 0 00-.7 1 3.6 3.6 0 00-.2 1.1.1.1 0 00.1.1h4.3a6.4 6.4 0 00-.2-.9 1.9 1.9 0 00-2-1.6 1.7 1.7 0 00-1.3.3zM189.5 107.3a.5.5 0 01.2.4l-.3 1.2a.2.2 0 01-.2.2h-1a2 2 0 00-1.5.6 2 2 0 00-.5 1.4v5.3l-.1.2h-1.6l-.1-.2v-9h1.6l.1.2v.8h.1a2.4 2.4 0 012.2-1.3zM195.2 116.5l-.1-.2V104l.1-.2h1.4l.3.2 3.1 4.9c0 .1.1.1.1 0l3.1-4.9.3-.2h1.5v12.7h-1.6l-.1-.2V107h-.1l-2.5 4.1-.3.2h-.6a.5.5 0 01-.4-.2L197 107h-.1v9.3l-.1.2h-1.6zM209.2 116a3.3 3.3 0 01-1.4-1.9 5.4 5.4 0 01-.4-2.2 6.9 6.9 0 01.3-2.2 3.8 3.8 0 013.8-2.6 3.5 3.5 0 012.3.7 2.8 2.8 0 011.4 1.8 5.4 5.4 0 01.4 2.2 5.6 5.6 0 01-.4 2.3 3.6 3.6 0 01-1.3 1.9 4 4 0 01-2.4.7 3.5 3.5 0 01-2.3-.7zm3.6-1.2a2.5 2.5 0 00.8-1.2 7.9 7.9 0 00.2-1.7 7.2 7.2 0 00-.2-1.7 2 2 0 00-.8-1.2 1.8 1.8 0 00-1.3-.4 2 2 0 00-1.3.4 2.5 2.5 0 00-.8 1.2 7.3 7.3 0 000 3.4 2.5 2.5 0 00.8 1.2 2.3 2.3 0 002.6 0zM225.6 111.9a7.5 7.5 0 01-.3 2.3 3.5 3.5 0 01-1.3 1.8 3.1 3.1 0 01-2.2.7 2 2 0 01-1.1-.3 2.3 2.3 0 01-1-.7h-.1v.5l-.1.2h-1.6v-12.6h1.6l.1.2v4h.1l1-.7 1.1-.2a3.6 3.6 0 013.6 2.5 14 14 0 01.2 2.3zm-1.7 0a4.3 4.3 0 00-.6-2.4 1.9 1.9 0 00-3.2 0 5.4 5.4 0 00-.5 2.4 4.9 4.9 0 00.5 2.3 1.8 1.8 0 001.6 1 1.8 1.8 0 001.7-1 5.2 5.2 0 00.5-2.3zM227.9 105.5a1.1 1.1 0 01-.3-.8 1.4 1.4 0 01.3-.9 1.6 1.6 0 01.9-.3 1.1 1.1 0 011.2 1.2 1.1 1.1 0 01-.3.8 1.4 1.4 0 01-.9.3 1.6 1.6 0 01-.9-.3zm.1 11l-.1-.2v-9h1.6l.1.2v8.8l-.1.2H228zM232.4 116.5v-12.7h1.6l.1.2v12.3l-.1.2h-1.6zM236.8 105.5a1.1 1.1 0 01-.3-.8 1.4 1.4 0 01.3-.9 1.2 1.2 0 01.9-.3 1.6 1.6 0 01.9.3 1.4 1.4 0 01.3.9 1.1 1.1 0 01-.3.8 1.6 1.6 0 01-.9.3 1.2 1.2 0 01-.9-.3zm.1 11l-.1-.2v-8.8l.1-.2h1.6v9l-.1.2h-1.6zM245.7 108.6h-2.1v4.7a1.9 1.9 0 00.3 1.2 1.6 1.6 0 001.1.3h.6l.1.2v.9a.3.3 0 01-.3.3h-.7a3.3 3.3 0 01-2.1-.5c-.5-.3-.7-.9-.7-1.8v-5.4h-1.3v-1.1l.1-.2h1.2l.1-.1v-2l.1-.2.2-.1h1.1l.2.1.1.2v2l.1.1h2l.1.2v1.1zM253.4 107.5a2.8 2.8 0 011.3 1.1 2.7 2.7 0 01.4 1.6v6.1l-.1.2h-1.6l-.1-.2v-.5h-.1a2.4 2.4 0 01-1.2.7l-1.5.3a3.2 3.2 0 01-2.2-.7 2.5 2.5 0 01-.9-2.1 2.9 2.9 0 011-2.2 4.1 4.1 0 012.8-.8h2.1v-.5a1.8 1.8 0 00-.4-1.3 2 2 0 00-1.4-.4 2.5 2.5 0 00-1.3.3 1.3 1.3 0 00-.6.7.3.3 0 01-.3.3l-1.3-.2-.2-.1h-.1a2.7 2.7 0 011.2-1.8 4.9 4.9 0 012.5-.6 4.2 4.2 0 012 .1zm-4.3-2.2a.9.9 0 01-.3-.7.8.8 0 01.3-.7.9.9 0 01.7-.3 1 1 0 011 1 .9.9 0 01-.3.7.8.8 0 01-.7.3.9.9 0 01-.7-.3zm3.5 9.4a1.5 1.5 0 00.7-1.3v-1.1h-1.8a3.1 3.1 0 00-1.7.5 1.1 1.1 0 00-.6 1.1 1.2 1.2 0 00.5 1.1 2.1 2.1 0 001.2.3 3.1 3.1 0 001.7-.6zm-.3-9.4a.9.9 0 01-.3-.7.8.8 0 01.3-.7.9.9 0 01.7-.3 1 1 0 01.8.3.8.8 0 01.3.7.9.9 0 01-.3.7 1 1 0 01-.8.3.9.9 0 01-.7-.3zM262 108.6h-2.2v4.7a1.9 1.9 0 00.3 1.2 1.8 1.8 0 001.1.3h.7v1.1c0 .2-.1.3-.2.3h-.8a3.3 3.3 0 01-2.1-.5c-.5-.3-.7-.9-.7-1.8v-5.4h-1.3v-1.3h1.2l.1-.1v-2l.1-.2.2-.1h1.1l.2.1.1.2v2l.1.1h2.1v1.3zM268 105.5a.9.9 0 01-.4-.8 1.1 1.1 0 01.4-.9 1.1 1.1 0 01.8-.3 1.2 1.2 0 01.9.3 1.4 1.4 0 01.3.9 1.1 1.1 0 01-.3.8 1.2 1.2 0 01-.9.3 1.1 1.1 0 01-.8-.3zm0 11l-.1-.2v-9h1.6l.1.2v8.8l-.1.2H268zM278.9 108a2.9 2.9 0 01.9 2.3v6l-.1.2h-1.6l-.1-.2v-5.6a2 2 0 00-.5-1.5 1.7 1.7 0 00-1.4-.6 1.9 1.9 0 00-1.3.5 1.9 1.9 0 00-.7 1.2v6.2h-1.6l-.1-.2v-8.8l.1-.2h1.6v.7h.1a2.6 2.6 0 012.3-1 3.2 3.2 0 012.4 1zM286.2 116.5v-12.7h1.5l.3.2 3.1 4.9c0 .1.1.1.1 0l3.1-4.9.3-.2h1.5v12.7h-1.7V107h-.1l-2.5 4.1a.5.5 0 01-.4.2h-.6l-.3-.2-2.5-4.1h-.1v9.5h-1.7zM304.8 114h.4l.8.5.1.2v.2a3.8 3.8 0 01-3.5 1.9 3.8 3.8 0 01-2.2-.6 3.6 3.6 0 01-1.4-1.6 7.6 7.6 0 01-.5-2.7 9.5 9.5 0 01.2-2 4.1 4.1 0 011.4-2 3.6 3.6 0 012.4-.7 3.6 3.6 0 012.6.9 4.9 4.9 0 011.2 2.6 8.6 8.6 0 01.1 1.7.2.2 0 01-.2.2h-5.9l.1 1a2 2 0 00.8 1.2 2.4 2.4 0 001.5.4 2.1 2.1 0 002.1-1.2zm-3.6-5a1.4 1.4 0 00-.7 1 3.6 3.6 0 00-.2 1.1.1.1 0 00.1.1h4.2a2.2 2.2 0 00-.1-.9 1.9 1.9 0 00-2-1.6 1.7 1.7 0 00-1.3.3zM313 108.6h-2.1v4.7a1.9 1.9 0 00.3 1.2 1.6 1.6 0 001.1.3h.6l.1.2v.9a.3.3 0 01-.3.3h-.7a3 3 0 01-2.1-.5c-.5-.3-.7-.9-.7-1.8v-5.4h-1.3v-1.1l.1-.2h1.2a.1.1 0 00.1-.1v-2.2h1.6v2.2h2.1l.1.2v1.1zM320.2 107.3c.1.1.2.2.1.4l-.2 1.2-.2.2h-1.1a1.9 1.9 0 00-1.9 2v5.3l-.1.2h-1.6l-.1-.2v-8.8l.1-.2h1.6v1h.1a2.4 2.4 0 012.2-1.3zM323.3 116a3.8 3.8 0 01-1.4-1.9 7.8 7.8 0 01-.3-2.2 6.9 6.9 0 01.3-2.2 3 3 0 011.4-1.9 4 4 0 012.4-.7 3.9 3.9 0 013.7 2.5 7.8 7.8 0 01.3 2.2 8 8 0 01-.3 2.3 4.5 4.5 0 01-1.4 1.9 3.7 3.7 0 01-2.3.7 3.8 3.8 0 01-2.4-.7zm3.6-1.2a2 2 0 00.8-1.2 4.4 4.4 0 00.2-1.7 8.1 8.1 0 00-.1-1.7 3.6 3.6 0 00-.8-1.2 2.3 2.3 0 00-1.4-.4 2 2 0 00-1.3.4 3.6 3.6 0 00-.8 1.2 7.3 7.3 0 000 3.4 2.5 2.5 0 00.8 1.2 2.9 2.9 0 001.4.4 2.5 2.5 0 001.2-.4zM339.8 111.9a12.7 12.7 0 01-.2 2.2 3.8 3.8 0 01-1.3 1.9 3.5 3.5 0 01-2.3.7l-1.1-.2-1-.7h-.1v4l-.1.2h-1.6l-.1-.2v-12.5h1.6l.1.2v.5h.1l1-.7 1.1-.2a3.8 3.8 0 012.2.6 4.3 4.3 0 011.3 1.9 7.5 7.5 0 01.4 2.3zm-1.7 0a4.9 4.9 0 00-.5-2.3 1.7 1.7 0 00-1.8-1 1.6 1.6 0 00-1.5 1 5.5 5.5 0 000 4.6 1.6 1.6 0 001.5 1 1.9 1.9 0 001.7-.9 4.3 4.3 0 00.6-2.4zM343.5 116a3.3 3.3 0 01-1.4-1.9 7.8 7.8 0 01-.4-2.2 6.7 6.7 0 01.4-2.2 3 3 0 011.4-1.9 3.6 3.6 0 012.4-.7 3.9 3.9 0 013.7 2.5 7.8 7.8 0 01.3 2.2 8 8 0 01-.3 2.3 4.5 4.5 0 01-1.4 1.9 3.9 3.9 0 01-2.3.7 3.6 3.6 0 01-2.4-.7zm3.6-1.2a2 2 0 00.8-1.2 4.4 4.4 0 00.2-1.7 4.2 4.2 0 00-.2-1.7 2.4 2.4 0 00-.7-1.2 2.3 2.3 0 00-1.4-.4 2 2 0 00-1.3.4 2.5 2.5 0 00-.8 1.2 7.3 7.3 0 000 3.4 2.5 2.5 0 00.8 1.2 2.9 2.9 0 001.4.4 2.5 2.5 0 001.2-.4zM352.2 116.5v-12.7h1.7v12.7h-1.7zM361.6 107.3c.1.1.2.2.1.4l-.2 1.2-.2.2h-1a2 2 0 00-1.5.6 2 2 0 00-.5 1.4v5.3l-.1.2h-1.6l-.1-.2v-8.8l.1-.2h1.6l.1.2v.8h.1a2.4 2.4 0 012.2-1.3zM369.3 114h.4l.8.5.1.2v.2a3.8 3.8 0 01-3.5 1.9 3.8 3.8 0 01-2.2-.6 3.6 3.6 0 01-1.4-1.6 7.6 7.6 0 01-.5-2.7 9.5 9.5 0 01.2-2 4.1 4.1 0 011.4-2 3.6 3.6 0 012.4-.7 3.6 3.6 0 012.6.9 4.9 4.9 0 011.2 2.6 8.6 8.6 0 01.1 1.7.2.2 0 01-.2.2h-5.9a2.5 2.5 0 00.1 1 2 2 0 00.8 1.2 2.4 2.4 0 001.5.4 2.1 2.1 0 002.1-1.2zm-3.6-5a1.4 1.4 0 00-.7 1 3.6 3.6 0 00-.2 1.1.1.1 0 00.1.1h4.2a2.2 2.2 0 00-.1-.9 1.9 1.9 0 00-.7-1.2 2 2 0 00-1.3-.4 1.7 1.7 0 00-1.3.3zM379 107.3h1.6v8.8a3.7 3.7 0 01-1.2 3.1 5.1 5.1 0 01-3.4 1h-.8a.3.3 0 01-.3-.3v-1.1l.1-.2h.9a3.3 3.3 0 002.2-.5 2.4 2.4 0 00.7-2v-.3l-.1.1a2.8 2.8 0 01-2.3.8 3.7 3.7 0 01-2.1-.6 2.7 2.7 0 01-1.3-1.8 6.5 6.5 0 01-.3-2.2 7.4 7.4 0 01.3-2.4 3.6 3.6 0 011.2-1.8 3.7 3.7 0 012.1-.6 3.2 3.2 0 012.4.9h.1v-.4l.2-.5zm-.1 5.6v-2.2a1.3 1.3 0 01-.1-.6 2.6 2.6 0 00-.7-1.1 1.8 1.8 0 00-1.3-.4 2 2 0 00-1.3.4 2.6 2.6 0 00-.7 1.1 7.2 7.2 0 00-.2 1.7 6.2 6.2 0 00.2 1.8 1.9 1.9 0 00.7 1.1 2 2 0 001.3.4 1.7 1.7 0 001.3-.4 1.9 1.9 0 00.7-1.1 2 2 0 01.1-.7zM383.3 105.5a.9.9 0 01-.4-.8 1.1 1.1 0 01.4-.9 1.1 1.1 0 01.8-.3 1.2 1.2 0 01.9.3 1.4 1.4 0 01.3.9 1.1 1.1 0 01-.3.8 1.2 1.2 0 01-.9.3 1.1 1.1 0 01-.8-.3zm0 11l-.1-.2v-9h1.6l.1.2v8.8l-.1.2h-1.6zM389 116a4.5 4.5 0 01-1.4-1.9 7.8 7.8 0 01-.3-2.2 6.9 6.9 0 01.3-2.2 3.8 3.8 0 013.8-2.6 3.5 3.5 0 012.3.7 2.8 2.8 0 011.4 1.8 5.4 5.4 0 01.4 2.2 5.6 5.6 0 01-.4 2.3 3.3 3.3 0 01-1.4 1.9 3.5 3.5 0 01-2.3.7 4 4 0 01-2.4-.7zm3.7-1.2a2.5 2.5 0 00.8-1.2 7.9 7.9 0 00.2-1.7 7.2 7.2 0 00-.2-1.7 2 2 0 00-.8-1.2 1.8 1.8 0 00-1.3-.4 2 2 0 00-1.3.4 2.5 2.5 0 00-.8 1.2 7.3 7.3 0 000 3.4 2 2 0 00.8 1.2 2.5 2.5 0 001.3.4 2.8 2.8 0 001.3-.4zM404.3 108a2.9 2.9 0 01.9 2.3v6l-.1.2h-1.6l-.1-.2v-5.6a2.5 2.5 0 00-.5-1.5 2 2 0 00-1.4-.6 2.2 2.2 0 00-1.4.5 2.3 2.3 0 00-.6 1.2v6l-.1.2h-1.6l-.1-.2v-9h1.6l.1.2v.5h.1a2.6 2.6 0 012.3-1 3.2 3.2 0 012.5 1zM413.7 114h.4l.7.5.2.2v.2a3.8 3.8 0 01-1.4 1.4 4.6 4.6 0 01-2.1.5 3.8 3.8 0 01-2.2-.6 3.4 3.4 0 01-1.3-1.6 7.6 7.6 0 01-.5-2.7 9.5 9.5 0 01.2-2 3.9 3.9 0 011.3-2 4 4 0 012.4-.7 3.7 3.7 0 012.7.9 4.9 4.9 0 011.2 2.6l.1 1.7c0 .7-.1.2-.3.2h-5.9a5.6 5.6 0 00.2 1 2 2 0 00.8 1.2 2.4 2.4 0 001.5.4 2.1 2.1 0 002-1.2zm-3.7-5a1.8 1.8 0 00-.7 1 3.7 3.7 0 00-.1 1.1h4.2a.1.1 0 00.1-.1l-.1-.9a2.4 2.4 0 00-.7-1.2 2.1 2.1 0 00-1.4-.4 1.8 1.8 0 00-1.3.5zM424 108a2.9 2.9 0 01.9 2.3v6l-.1.2h-1.6l-.1-.2v-5.6a2 2 0 00-.5-1.5 1.7 1.7 0 00-1.4-.6 1.9 1.9 0 00-1.3.5 1.9 1.9 0 00-.7 1.2v6.2h-1.6l-.1-.2v-8.8l.1-.2h1.6v.7h.1a2.6 2.6 0 012.3-1 3.2 3.2 0 012.4 1z"
     id="path10"
     style="fill:#2077ca;fill-opacity:1" /></svg>
